<svg xmlns="http://www.w3.org/2000/svg" viewBox="0 0 112 100" fill="none" stroke-linecap="round" stroke-linejoin="round">
  <circle cx="50" cy="50" r="49" fill="#faf4e9"/>
  <path d="M88 73A42 42 0 1 0 63.5 88.3" stroke="#33291f" stroke-width="2.8"/>
  <g transform="translate(27 6) scale(1.66)" stroke="#33291f" stroke-width="1.8">
    <path d="M17 21a1 1 0 0 0 1-1v-5.35c0-.457.316-.844.727-1.041a4 4 0 0 0-2.134-7.589 5 5 0 0 0-9.186 0 4 4 0 0 0-2.134 7.588c.411.198.727.585.727 1.041V20a1 1 0 0 0 1 1Z"/>
    <path d="M6 17h12" stroke="#c2613b"/>
  </g>
  <g stroke="#33291f" stroke-width="2.4">
    <path d="M62 84 41 62" stroke-width="3"/>
    <ellipse cx="30" cy="54" rx="4" ry="10.5" transform="rotate(46 30 54)"/>
    <ellipse cx="30" cy="54" rx="7.2" ry="11.2" transform="rotate(46 30 54)" opacity=".5"/>
  </g>
  <g stroke="#33291f" stroke-width="2.4">
    <path d="M31 84 52 62" stroke-width="3"/>
    <rect x="57" y="45" width="13" height="17.5" rx="5" transform="rotate(-46 63.5 53.75)"/>
    <path d="M61.5 50.5l3.6 4" stroke-width="2"/>
    <path d="M58.5 53.5l3.6 4" stroke-width="2"/>
  </g>
  <g>
    <path d="M77 96C83.5 83 92 68 103 57" stroke="#5b6b3f" stroke-width="2.4"/>
    <path d="M86 80c-6.6-.2-11.4-2.9-14.2-8 6.6.2 11.4 2.9 14.2 8z" fill="#5b6b3f"/>
    <path d="M88 76c1.6-6.3 5.4-10.7 11.3-13-1.6 6.3-5.4 10.7-11.3 13z" fill="#5b6b3f"/>
    <path d="M93.5 68.5c-6.1-.9-10.5-3.7-12.9-8.7 6.1.9 10.5 3.7 12.9 8.7z" fill="#5b6b3f"/>
    <path d="M95.5 64.5c.9-6.1 4-10.5 9.2-12.7-.9 6.1-4 10.5-9.2 12.7z" fill="#5b6b3f"/>
  </g>
</svg>
