<svg xmlns="http://www.w3.org/2000/svg" viewBox="0 0 48 48">
  <circle cx="24" cy="24" r="24" fill="#faf4e9"/>
  <g transform="translate(3 0)">
    <ellipse cx="16.5" cy="13.5" rx="5.8" ry="7.8" fill="none" stroke="#c2613b" stroke-width="2.8"/>
    <path d="M16.5 21.5v19" stroke="#c2613b" stroke-width="2.8" stroke-linecap="round"/>
    <path d="M30.5 40.5c-.5-10.5.9-21 5-30" fill="none" stroke="#5b6b3f" stroke-width="2.6" stroke-linecap="round"/>
    <path d="M31.8 25.5c-4.4-.9-7.3-3.6-8-7.6 4.4.9 7.3 3.6 8 7.6z" fill="#5b6b3f"/>
    <path d="M33 18.9c3.9-.4 6.8-2.7 8-6.5-3.9.4-6.8 2.7-8 6.5z" fill="#5b6b3f"/>
    <path d="M30.9 33c-4-.8-6.7-3.2-7.4-6.9 4 .8 6.7 3.2 7.4 6.9z" fill="#5b6b3f"/>
  </g>
</svg>
