<svg xmlns="http://www.w3.org/2000/svg" viewBox="0 0 100 100" fill="none" stroke="#33291f" stroke-linecap="round" stroke-linejoin="round">
  <circle cx="50" cy="50" r="48" fill="#faf4e9" stroke="none"/>
  <circle cx="50" cy="50" r="45" stroke-width="3"/>
  <g transform="translate(31 8.5) scale(1.58)" stroke-width="1.8">
    <path d="M17 21a1 1 0 0 0 1-1v-5.35c0-.457.316-.844.727-1.041a4 4 0 0 0-2.134-7.589 5 5 0 0 0-9.186 0 4 4 0 0 0-2.134 7.588c.411.198.727.585.727 1.041V20a1 1 0 0 0 1 1Z"/>
    <path d="M6 17h12"/>
  </g>
  <g stroke-width="2.4">
    <path d="M66 85 44 64" stroke-width="3"/>
    <ellipse cx="32.5" cy="56" rx="4" ry="10.5" transform="rotate(46 32.5 56)"/>
    <ellipse cx="32.5" cy="56" rx="7.2" ry="11.2" transform="rotate(46 32.5 56)" opacity=".5"/>
  </g>
  <g stroke-width="2.4">
    <path d="M34 85 56 64" stroke-width="3"/>
    <rect x="61" y="47" width="13" height="17.5" rx="5" transform="rotate(-46 67.5 55.75)"/>
    <path d="M65.5 52.5l3.6 4" stroke-width="2"/>
    <path d="M62.5 55.5l3.6 4" stroke-width="2"/>
  </g>
</svg>
