<svg xmlns="http://www.w3.org/2000/svg" viewBox="0 0 400 400">
  <circle cx="200" cy="200" r="200" fill="#faf4e9"/>
  <g fill="none" stroke="#33291f" stroke-width="9" stroke-linecap="round" stroke-linejoin="round" transform="translate(30 30) scale(0.85)">
    <path d="M 246.9 363.4 A 170 170 0 1 1 363.4 246.9"/>
    <path d="M 145 186 C 130.5 183.5 106 171 102.4 151.1 C 100 129.1 117 113.3 139 116.3 C 141.4 88.9 167.1 73 200 73 C 232.9 73 258.6 88.9 261 116.3 C 283 113.3 300 129.1 297.6 151.1 C 294 171 269.5 183.5 255 186"/>
    <rect x="138" y="185" width="124" height="30" rx="9" stroke="#c2613b"/>
    <g transform="translate(151.9 260.5) rotate(-48)">
      <path d="M 0 22.4 C -11.2 16.8 -21.3 4.5 -26.9 -14.6 C -34.7 -48.2 -22 -86 0 -89.6 C 22 -86 34.7 -48.2 26.9 -14.6 C 21.3 4.5 11.2 16.8 0 22.4"/>
      <path d="M 0 16 L 0 -85"/>
      <path d="M 0 22.4 L 0 107"/>
    </g>
    <g transform="translate(228.1 275) rotate(42)">
      <path d="M -16 -34 L -26 -82 Q -28.5 -96 -14 -96 L 14 -96 Q 28.5 -96 26 -82 L 16 -34 Q 10 -26 0 -26 Q -10 -26 -16 -34 Z"/>
      <path d="M 0 -26 L 0 92"/>
    </g>
    <g stroke="#5b6b3f">
      <path d="M 260.2 356.8 Q 343.3 343.3 356.8 260.2"/>
      <path d="M 0 0 C 7 -9 19 -9 26 0 C 19 9 7 9 0 0" transform="translate(279.1 352.6) rotate(35.7)"/>
      <path d="M 0 0 C 6 -7.5 16 -7.5 22 0 C 16 7.5 6 7.5 0 0" transform="translate(319.9 331.4) rotate(12)"/>
      <path d="M 0 0 C 6 -7.5 16 -7.5 22 0 C 16 7.5 6 7.5 0 0" transform="translate(346.3 296.1) rotate(-13.5)"/>
    </g>
  </g>
</svg>
