<svg xmlns="http://www.w3.org/2000/svg" viewBox="0 0 480 505"><defs></defs>
          <g transform="translate(84 2) scale(0.78)">
            <g fill="none" stroke="#faf4e9" stroke-width="7" stroke-linecap="round" stroke-linejoin="round">
              <path d="M 246.9 363.4 A 170 170 0 1 1 363.4 246.9"></path>
            <path d="M 241.4 344.2 A 150 150 0 1 1 344.2 241.4" stroke-width="2.6" stroke-dasharray="0.1 8.5"></path>
              <path d="M 145 186 C 130.5 183.5 106 171 102.4 151.1 C 100 129.1 117 113.3 139 116.3 C 141.4 88.9 167.1 73 200 73 C 232.9 73 258.6 88.9 261 116.3 C 283 113.3 300 129.1 297.6 151.1 C 294 171 269.5 183.5 255 186"></path>
              <rect x="138" y="185" width="124" height="30" rx="9" stroke="#adbb8a"></rect>
              <g transform="translate(151.9 260.5) rotate(-48)">
                <path d="M 0 22.4 C -11.2 16.8 -21.3 4.5 -26.9 -14.6 C -34.7 -48.2 -22 -86 0 -89.6 C 22 -86 34.7 -48.2 26.9 -14.6 C 21.3 4.5 11.2 16.8 0 22.4"></path>
                <path d="M 0 22.4 C -5.6 15.7 -12.3 3.4 -14.6 -14.6 C -19 -48.2 -11.5 -84.5 0 -87.4 C 11.5 -84.5 19 -48.2 14.6 -14.6 C 12.3 3.4 5.6 15.7 0 22.4"></path>
                <path d="M 0 16 L 0 -85"></path>
                <path d="M 0 22.4 L 0 107"></path>
                <path d="M -7 35 L 7 35"></path>
              </g>
              <g transform="translate(228.1 275) rotate(42)">
                <path d="M -16 -34 L -26 -82 Q -28.5 -96 -14 -96 L 14 -96 Q 28.5 -96 26 -82 L 16 -34 Q 10 -26 0 -26 Q -10 -26 -16 -34 Z"></path>
                <path d="M -9 -80 L -9 -52" stroke-width="6.5"></path>
                <path d="M 9 -80 L 9 -52" stroke-width="6.5"></path>
                <path d="M 0 -26 L 0 92"></path>
              </g>
              <g stroke="#adbb8a">
                <path d="M 260.2 356.8 Q 343.3 343.3 356.8 260.2"></path>
                <g>
                  <path d="M 0 0 C 7 -9 19 -9 26 0 C 19 9 7 9 0 0" transform="translate(279.1 352.6) rotate(35.7)"></path>
                  <path d="M 0 0 C 5 -6 13 -6 18 0 C 13 6 5 6 0 0" transform="translate(354.2 273) rotate(-128.2)"></path>
                </g>
                <path d="M 0 0 C 6 -7.5 16 -7.5 22 0 C 16 7.5 6 7.5 0 0" transform="translate(301.3 343.8) rotate(-79.4)"></path>
                <path d="M 0 0 C 6 -7.5 16 -7.5 22 0 C 16 7.5 6 7.5 0 0" transform="translate(319.9 331.4) rotate(12)"></path>
                <path d="M 0 0 C 6 -7.5 16 -7.5 22 0 C 16 7.5 6 7.5 0 0" transform="translate(334.9 315.5) rotate(-105.2)"></path>
                <path d="M 0 0 C 6 -7.5 16 -7.5 22 0 C 16 7.5 6 7.5 0 0" transform="translate(346.3 296.1) rotate(-13.5)"></path>
                <path d="M 0 0 C 6 -7.5 16 -7.5 22 0 C 16 7.5 6 7.5 0 0" transform="translate(356.8 260.2) rotate(-110)"></path>
              </g>
            </g>
          </g>
          <text x="240" y="388" text-anchor="middle" fill="#faf4e9" font-family="&#39;Dancing Script&#39;, cursive" font-size="84" font-weight="600">Sylvias</text>
          <text x="247" y="452" text-anchor="middle" fill="#adbb8a" font-family="&#39;Quicksand&#39;, sans-serif" font-size="29" font-weight="600" letter-spacing="13">GUSTO</text>
          <line x1="217" y1="470" x2="263" y2="470" stroke="#adbb8a" stroke-width="1.6" stroke-linecap="round"></line>
          <text x="240" y="490" text-anchor="middle" fill="#adbb8a" font-family="&#39;Quicksand&#39;, sans-serif" font-size="13.5" font-weight="600" letter-spacing="4.5">MOBILE KOCH- &amp; BACKKURSE</text>
        </svg>